<svg xmlns="http://www.w3.org/2000/svg" viewBox="0 0 855.2 555.32"><defs><style>.cls-1{fill:#ffffff;}</style></defs><title>goodFichier 3</title><g id="Calque_2" data-name="Calque 2"><g id="Calque_1-2" data-name="Calque 1"><path class="cls-1" d="M335.76,329.07H192a40,40,0,0,1-34.64-20L85.42,184.53a40,40,0,0,1,0-40L157.32,20A40,40,0,0,1,192,0h143.8A40,40,0,0,1,370.4,20l71.9,124.53a40,40,0,0,1,0,40L370.4,309.07A40,40,0,0,1,335.76,329.07Zm-120.71-80h97.61l48.81-84.54L312.66,80H215.05l-48.8,84.53Z"/><path class="cls-1" d="M215.47,543.57H80.9a40,40,0,0,1,0-80H192.15l154.62-273A40,40,0,0,1,416.38,230L250.27,523.29A40,40,0,0,1,215.47,543.57Z"/><path class="cls-1" d="M135,543.57H80.9A40,40,0,0,1,46.22,523.5L5.33,452.35a40,40,0,1,1,69.36-39.86l29.36,51.08H135a40,40,0,0,1,0,80Z"/><path class="cls-1" d="M617.67,555.32H473.88a40,40,0,0,1-34.65-20L367.34,410.78a40,40,0,0,1,0-40l71.89-124.53a40,40,0,0,1,34.65-20H617.67a40,40,0,0,1,34.65,20l71.89,124.53a40,40,0,0,1,0,40L652.32,535.32A40,40,0,0,1,617.67,555.32Zm-120.7-80h97.61l48.81-84.54-48.81-84.53H497l-48.8,84.53Z"/><path class="cls-1" d="M644.22,509.86a40,40,0,0,1-34.44-60.29L768.9,179.16,713.27,82.82a40,40,0,0,1,69.28-40l67.29,116.54a40,40,0,0,1-.17,40.28L678.73,490.14A40,40,0,0,1,644.22,509.86Z"/><path class="cls-1" d="M775,149.65a40,40,0,0,1-34.68-20l-15.46-26.79-58.92.12h-.08a40,40,0,0,1-.08-80l82.07-.16h.07a40,40,0,0,1,34.64,20l27,46.83a40,40,0,0,1-34.6,60Z"/></g></g></svg>